<?xml version="1.0" encoding="UTF-8"?>
<svg id="Calque_2" data-name="Calque 2" xmlns="http://www.w3.org/2000/svg" viewBox="0 0 909.5 448.99">
  <defs>
    <style>
      .cls-1 {
        fill: #131413;
      }
    </style>
  </defs>
  <g id="Design">
    <g>
      <g>
        <path class="cls-1" d="m287.32,227.18c-2.48,0-4.93-.39-7.26-1.15l-3.6-1.17,2.08-3.16c7.46-11.36,12.23-23.92,14.16-37.35l.54-3.75,3.47,1.51c8.58,3.74,14.12,12.2,14.12,21.56,0,12.96-10.55,23.51-23.51,23.51Zm-1.72-5.86c.57.05,1.15.08,1.72.08,9.78,0,17.73-7.95,17.73-17.73,0-5.76-2.78-11.07-7.32-14.36-2.12,11.35-6.19,22.09-12.13,32.01Z"/>
        <path class="cls-1" d="m114.66,227.18c-12.96,0-23.51-10.55-23.51-23.51,0-9.35,5.54-17.82,14.12-21.56l3.47-1.51.54,3.75c1.93,13.43,6.7,25.99,14.16,37.35l2.08,3.16-3.6,1.17c-2.34.76-4.78,1.15-7.26,1.15Zm-10.41-37.87c-4.54,3.29-7.32,8.6-7.32,14.36,0,9.78,7.95,17.73,17.73,17.73.58,0,1.15-.03,1.72-.08-5.94-9.92-10.01-20.66-12.13-32.01Z"/>
        <path class="cls-1" d="m271.89,143.42l-50.28-73.62c-3.98-5.83-10.21-9.62-17.09-10.4-1.28-.14-2.58-.21-3.86-.17-7.31.18-14.07,3.71-18.56,9.69l-55.06,73.26c-1.58,2.1-2.01,4.84-1.14,7.34.86,2.47,2.89,4.35,5.42,5,25.37,6.58,47.87,21.96,63.34,43.32,1.26,1.73,3.21,2.73,5.34,2.74h.03c2.13,0,4.07-.99,5.34-2.7,15.26-20.73,37.3-35.79,62.03-42.39,2.48-.66,4.49-2.49,5.37-4.88.89-2.38.56-5.06-.88-7.17Zm-4.54,5.16c-.24.65-.77,1.13-1.45,1.31-26,6.94-49.15,22.76-65.19,44.55-.22.3-.53.35-.69.35s-.46-.05-.68-.35c-16.25-22.44-39.9-38.6-66.57-45.52-.95-.25-1.31-1-1.42-1.31-.11-.32-.31-1.15.3-1.96l55.06-73.26c3.37-4.49,8.64-7.24,14.09-7.38.18,0,.37,0,.55,0,.84,0,1.69.05,2.52.14,5.21.59,9.94,3.48,12.98,7.92l6.1,8.93,44.18,64.69c.39.57.47,1.26.23,1.9Z"/>
        <path class="cls-1" d="m267.36,148.58c-.24.65-.77,1.13-1.45,1.31-26,6.94-49.15,22.76-65.19,44.55-.22.3-.53.35-.69.35s-.46-.05-.68-.35c-16.25-22.44-39.9-38.6-66.57-45.52-.95-.25-1.31-1-1.42-1.31-.11-.32-.31-1.15.3-1.96l55.06-73.26c3.37-4.49,8.64-7.24,14.09-7.38.18,0,.37,0,.55,0,.84,0,1.69.05,2.52.14,5.21.59,9.94,3.48,12.98,7.92l6.1,8.93,44.18,64.69c.39.57.47,1.26.23,1.9Z"/>
        <path class="cls-1" d="m202.67,269.21l-2.87-.04c-6.7-.1-13.38-.88-19.88-2.33-12.93-2.87-24.96-8.26-35.75-16.01-10.63-7.63-19.5-17.13-26.37-28.24-7.53-12.18-12.21-25.56-13.91-39.77-.46-3.86-.7-7.8-.7-11.7v-2.99s2.98.1,2.98.1c36.37,1.22,69.24,22.15,85.78,54.63,6.71,13.17,10.34,27.38,10.8,42.23v.14s0,.05,0,.05c-.01.35-.02.7-.03,1.05l-.06,2.87Zm-93.64-95.05c.09,2.67.29,5.35.61,7.98,1.59,13.37,6,25.96,13.08,37.41,13.05,21.11,34.36,36.29,58.46,41.65,5.15,1.15,10.42,1.85,15.73,2.1-.68-13.28-4.07-25.99-10.09-37.81-15.13-29.7-44.74-49.16-77.79-51.33Z"/>
        <path class="cls-1" d="m201.31,269.18c-.49,0-.97,0-1.46-.01l-2.78-.05-.06-2.78c0-.32-.02-.64-.02-.96v-.24s0-.05,0-.05c.45-14.89,4.09-29.13,10.83-42.33,8.22-16.11,20.68-29.72,36.02-39.36,15.77-9.91,33.99-15.18,52.69-15.26h2.9s0,2.92,0,2.92c0,4.72-.34,9.47-1.01,14.11-2.05,14.27-7.12,27.63-15.05,39.7-7.22,10.99-16.4,20.28-27.3,27.62-11.11,7.48-23.4,12.53-36.53,14.99-5.96,1.12-12.09,1.69-18.22,1.69Zm92.29-95.2c-34.26,1.2-64.97,20.69-80.65,51.41-6.06,11.88-9.46,24.65-10.13,38,5.26-.09,10.52-.62,15.63-1.58,24.45-4.59,46.35-19.21,60.08-40.11,7.46-11.36,12.23-23.92,14.16-37.35.49-3.41.8-6.89.9-10.37Z"/>
        <polygon class="cls-1" points="197.86 263.12 263.94 202.81 201.89 267.26 197.86 263.12 197.86 263.12"/>
        <polygon class="cls-1" points="197.83 267.23 137.68 202.81 201.92 263.15 197.83 267.23 197.83 267.23"/>
      </g>
      <g>
        <path class="cls-1" d="m53.53,417.62c-2.76-13.55,9.03-22.59,19.57-17.57,13.8,6.78,18.82,37.39,47.93,37.39,20.08,0,29.86-14.3,29.86-28.86.25-44.92-96.87-21.08-95.11-86.33.75-29.36,21.08-51.44,60.98-51.44,37.39,0,55.21,18.07,56.21,33.63.75,9.54-4.77,17.32-16.31,15.56-15.06-2.01-12.8-37.64-43.41-37.64-19.82,0-29.61,12.3-29.61,26.1,0,39.65,97.87,21.33,97.87,85.32,0,28.86-21.08,55.21-63.24,55.21-37.39,0-61.73-16.81-64.74-31.37Z"/>
        <path class="cls-1" d="m192.8,412.61c0-28.61,29.86-36.14,55.96-42.91l16.06-3.76v-7.78c0-17.06-2.26-31.12-13.55-31.12-19.32,0-21.08,27.35-37.89,28.61-9.79.75-15.31-5.52-14.3-14.81,1.51-15.31,31.37-24.59,53.95-24.59,31.12,0,44.67,16.81,44.67,44.67v54.2c0,8.78,1,13.3,8.53,10.54,2.51-.75,4.27-.5,5.52,1.51,1.51,2.51-.25,5.77-2.26,8.53-1.76,2.26-13.8,12.55-25.85,12.55-9.54,0-14.55-5.77-16.56-16.31-8.53,10.79-21.33,17.06-38.39,17.06-19.07,0-35.89-14.55-35.89-36.39Zm70.01,4.27c.75-1.76,2.01-6.02,2.01-10.04v-29.61c-4.27.75-15.06,3.51-23.09,8.03-9.54,5.27-15.81,13.3-15.81,24.34,0,14.3,7.03,22.33,16.81,22.33s16.81-6.02,20.08-15.06Z"/>
        <path class="cls-1" d="m369.72,444.98l-43.41-94.61c-8.03-17.32-11.29-20.58-19.83-23.84-1.76-.75-3.01-2.01-3.01-4.77,0-2.51,1.76-4.27,4.02-4.27h60.73c2.26,0,3.76,1.76,3.76,4.27,0,2.76-1,4.02-3.01,4.77-8.78,3.51-14.05,6.52-6.52,24.34l22.84,55.46,20.83-52.45c7.03-18.07,4.01-23.84-5.02-27.35-1.76-.75-3.01-2.01-3.01-4.77,0-2.51,1.76-4.27,4.02-4.27h35.63c2.26,0,4.02,1.76,4.02,4.27,0,2.76-1.26,4.02-3.01,4.77-8.53,3.51-12.55,9.29-19.57,26.6l-36.89,91.6c-1.51,3.01-3.01,4.27-6.27,4.27s-5.02-1.76-6.27-4.02Z"/>
        <path class="cls-1" d="m434.21,385.75c0-39.4,28.61-69.51,64.24-69.51s51.44,26.35,51.44,49.44c0,4.02-3.01,7.03-6.78,7.03h-76.79c-.5,32.62,16.06,53.7,40.4,53.7,16.81,0,27.86-8.03,35.63-19.32,1-1.51,3.26-3.01,5.77-2.01,2.26,1,2.51,3.26,2.01,5.77-3.26,14.3-17.06,38.14-51.95,38.14-41.16,0-63.99-25.85-63.99-63.24Zm61.98-58.47c-18.57,0-26.85,15.06-29.36,33.88h51.44c1.25-15.56-3.51-33.88-22.08-33.88Z"/>
        <path class="cls-1" d="m571.98,403.07v-54.46c0-9.79-1.25-13.3-9.03-14.55-2.76-.5-3.76-2.26-3.76-4.77s1.51-4.27,4.27-5.02c2.01-.5,21.33-5.27,32.87-7.78,4.52-1,8.28,2.26,8.28,6.78v75.54c0,16.56,7.78,27.86,22.84,27.86,15.81,0,28.61-12.8,28.61-28.86v-49.19c0-9.79-1-13.3-9.03-14.55-2.51-.5-3.51-2.26-3.51-4.77s1.51-4.27,4.27-5.02c2.01-.5,21.33-5.27,32.87-7.78,4.52-1,8.28,2.26,8.28,6.78v93.35c0,9.79,1.25,13.3,9.03,14.55,2.76.5,3.76,2.26,3.76,4.77s-1.51,4.27-4.27,5.02c-2.01.5-21.33,5.27-32.87,7.78-4.52,1-8.53-2.26-8.53-6.78v-18.07c-8.28,14.55-24.34,25.09-42.16,25.09-29.86,0-41.91-21.58-41.91-45.92Z"/>
        <path class="cls-1" d="m711.75,443.47c0-2.76,1.26-3.76,3.01-4.52,9.03-3.76,9.79-9.54,9.79-25.35v-65c0-9.79-1-13.3-9.03-14.55-2.51-.5-3.51-2.26-3.51-4.77s1.51-4.27,4.02-5.02c2.26-.5,21.58-5.27,33.12-7.78,4.27-1,8.28,2.26,8.28,6.78v20.08c6.27-14.3,17.57-27.1,30.87-27.1,9.79,0,13.55,7.03,13.55,15.06,0,9.03-3.76,17.57-16.56,17.57-20.08,0-27.86,5.52-27.86,25.09v40.4c0,18.07,5.02,20.83,14.56,24.59,2.01.5,3.01,1.76,3.01,4.52,0,2.51-1.76,4.27-4.02,4.27h-55.21c-2.26,0-4.02-1.76-4.02-4.27Z"/>
        <path class="cls-1" d="m805.61,423.65c-.75-8.28,7.28-15.56,15.56-14.3,14.05,2.26,17.82,28.61,39.15,28.61,11.29,0,20.58-6.78,20.58-19.32,0-30.36-70.77-12.55-70.77-62.24,0-21.58,17.06-40.15,46.93-40.15,24.34,0,45.42,10.29,46.68,22.84,1,10.29-8.28,16.81-18.07,12.55-8.78-3.76-11.79-24.09-29.11-24.09-14.3,0-19.57,7.78-19.57,17.82,0,26.1,72.52,14.05,72.52,60.73,0,26.1-21.08,42.91-49.94,42.91s-52.45-10.29-53.95-25.35Z"/>
      </g>
      <g>
        <path class="cls-1" d="m325.52,229.69c0-32.85,26.32-62.34,59.87-62.34,26.49,0,45.39,14.13,45.39,27.9,0,6.53-3,11.13-9.54,11.13-15.72,0-11.13-30.91-34.26-30.91-21.37,0-35.5,19.6-35.5,49.63s12.72,55.81,38.15,55.81c12.89,0,21.19-4.24,21.19-15.19v-14.66c0-14.13-4.59-13.78-11.3-16.25-1.41-.53-2.12-1.41-2.12-3.18,0-1.94,1.24-3,2.83-3h38.68c1.59,0,2.83,1.06,2.83,3,0,1.77-.88,2.65-2.12,3.18-5.83,2.3-6.89,3.71-6.89,12.89v9.89c0,18.01-18.72,35.15-47.86,35.15-38.5,0-59.34-27.73-59.34-63.05Z"/>
        <path class="cls-1" d="m447.02,246.11c0-28.08,18.54-46.8,46.27-46.8s46.27,18.72,46.27,46.8-18.72,46.63-46.27,46.63-46.27-18.54-46.27-46.63Zm67.64,0c0-21.02-5.83-38.85-21.37-38.85s-21.37,17.84-21.37,38.85,5.83,38.85,21.37,38.85,21.37-18.01,21.37-38.85Z"/>
        <path class="cls-1" d="m553.87,260.42v-38.33c0-6.89-.88-9.36-6.36-10.24-1.94-.35-2.65-1.59-2.65-3.36s1.06-3,3-3.53c1.41-.35,15.01-3.71,23.14-5.48,3.18-.71,5.83,1.59,5.83,4.77v53.16c0,11.66,5.47,19.6,16.07,19.6,11.13,0,20.13-9.01,20.13-20.31v-34.62c0-6.89-.71-9.36-6.36-10.24-1.77-.35-2.47-1.59-2.47-3.36s1.06-3,3-3.53c1.41-.35,15.01-3.71,23.14-5.48,3.18-.71,5.83,1.59,5.83,4.77v65.7c0,6.89.88,9.36,6.36,10.24,1.94.35,2.65,1.59,2.65,3.36s-1.06,3-3,3.53c-1.41.35-15.01,3.71-23.14,5.47-3.18.71-6.01-1.59-6.01-4.77v-12.72c-5.83,10.24-17.13,17.66-29.67,17.66-21.02,0-29.49-15.19-29.49-32.32Zm20.84-72.94c-.35-1.06,0-1.94.88-2.65l17.13-15.19c.53-.53,1.24-1.06,2.65-1.06h1.06c1.41,0,2.12.53,2.65,1.06l17.31,15.19c.88.71,1.24,1.59.71,2.65-.18,1.06-1.41,1.41-2.47,1.06l-18.72-8.65-18.72,8.65c-1.06.35-2.12,0-2.47-1.06Z"/>
        <path class="cls-1" d="m659.13,262.89v-54.57h-7.42c-2.3,0-3.89-1.94-3.89-4.06s1.77-4.06,3.89-4.06c16.6,0,21.9-15.9,23.14-22.08.35-1.59,1.24-3.36,3.89-3.36s3.53,1.59,3.53,3.18v22.25h18.72c2.3,0,3.71,1.94,3.71,4.06s-1.41,4.06-3.71,4.06h-18.72v51.39c0,12.89,3.89,17.48,11.3,17.48,6.18,0,10.6-5.12,13.95-9.54,1.06-1.59,2.65-1.94,4.24-1.24,1.24.88,1.59,2.65,1.06,4.42-3,9.89-11.13,21.9-26.49,21.9-20.49,0-27.2-13.78-27.2-29.85Z"/>
        <path class="cls-1" d="m716.52,274.9c-.53-5.83,5.12-10.95,10.95-10.07,9.89,1.59,12.54,20.13,27.55,20.13,7.95,0,14.48-4.77,14.48-13.6,0-21.37-49.8-8.83-49.8-43.8,0-15.19,12.01-28.26,33.03-28.26,17.13,0,31.97,7.24,32.85,16.07.71,7.24-5.83,11.83-12.72,8.83-6.18-2.65-8.3-16.95-20.49-16.95-10.07,0-13.78,5.47-13.78,12.54,0,18.37,51.04,9.89,51.04,42.74,0,18.37-14.84,30.2-35.15,30.2s-36.91-7.24-37.97-17.84Z"/>
        <path class="cls-1" d="m797.58,257.77c0-16.6,12.01-27.73,25.43-33.91-9.18-11.3-15.01-19.43-14.66-29.67.53-15.19,14.48-26.85,33.38-26.85,17.84,0,30.38,10.07,30.38,23.31,0,17.48-14.66,25.96-25.43,31.08,10.6,13.42,22.96,28.26,31.79,38.68,1.41-3.71,2.47-7.59,3.18-11.3,1.06-8.3-1.59-12.54-7.59-13.95-1.41-.18-2.12-1.24-2.12-3.18,0-1.77,1.24-3,2.83-3h21.9c1.59,0,2.83,1.24,2.83,3,0,1.94-.71,2.83-2.12,3.18-6.36,2.3-7.59,4.59-8.83,11.48-1.06,6.71-2.65,13.42-5.3,19.43,4.77,5.3,9.54,11.83,14.13,11.83,2.12,0,3.89-.71,5.48-2.3,1.24-1.24,2.3-1.59,3.53-1.24,1.24.53,1.77,1.77,1.41,3.18-1.06,6.36-6.18,14.31-17.84,14.31-7.06,0-12.36-3.36-17.66-9.36-6.71,6.36-15.36,10.24-26.84,10.24-28.43,0-47.86-14.84-47.86-34.97Zm69.94,19.25l-37.09-44.15-.18-.18c-6.36,6-9.71,13.6-9.71,23.49,0,14.13,8.83,27.91,28.61,27.91,7.77,0,13.78-2.83,18.37-7.06Zm-11.48-86.72c0-9.01-5.3-16.07-14.31-16.07s-14.66,6.53-14.66,15.72c0,7.77,6.53,15.19,14.48,25.26,6.36-4.59,14.48-12.54,14.48-24.9Z"/>
      </g>
      <g>
        <path class="cls-1" d="m46.24,283.8c.23.59.24,1.1.04,1.55-.21.45-.6.79-1.19,1.02l-23.7,9.3c-.61.24-1.14.26-1.59.05-.45-.21-.78-.59-1-1.15-.21-.53-.28-.98-.2-1.35.08-.37.31-.77.69-1.22l14.74-17.32.46,1.18-22.57-2.64c-.58-.06-1.03-.2-1.33-.4-.3-.21-.56-.57-.77-1.11-.22-.56-.23-1.05-.03-1.48.2-.43.6-.76,1.21-1l23.7-9.3c.59-.23,1.1-.26,1.55-.1.45.16.78.54,1.01,1.12.23.59.24,1.1.03,1.53-.21.44-.61.77-1.19,1l-19.69,7.73-.33-.84,19.85,2.43c.46.05.83.16,1.09.32.27.16.48.44.64.85.16.41.19.78.1,1.1-.09.33-.27.67-.55,1.01l-12.9,15.37-.36-.92,19.73-7.74c.59-.23,1.1-.26,1.55-.1.45.16.78.54,1.01,1.12Z"/>
        <path class="cls-1" d="m34.65,251.65c.1.54.06.99-.12,1.36-.18.37-.47.62-.86.74-.39.13-.86.13-1.41.01l-26.53-6.38c-.69-.15-1.21-.41-1.56-.77-.35-.37-.57-.81-.66-1.32-.09-.48-.04-.96.15-1.42.19-.47.58-.89,1.18-1.28l22.48-15.47c.47-.34.91-.52,1.34-.54.43-.02.78.09,1.06.34.28.25.47.65.57,1.19.11.59.05,1.09-.18,1.49-.23.4-.63.8-1.2,1.18l-6.01,4.03.78-2.1,3.18,17.17-1.47-1.64,7.05,1.57c.69.15,1.21.36,1.56.63.34.27.56.67.66,1.21Zm-26.22-7.19l15.56,3.41-.78,1.19-2.64-14.23,1.14.75-13.29,8.8v.08Z"/>
        <path class="cls-1" d="m29.58,218.52c0,.63-.17,1.12-.53,1.48-.35.36-.86.54-1.51.54l-25.29.13c-.68,0-1.21-.16-1.58-.5-.37-.34-.56-.8-.56-1.37,0-.49.08-.87.26-1.13.18-.26.5-.57.96-.93l22.17-17v1.03s-21.48.11-21.48.11c-.63,0-1.12-.16-1.48-.5-.36-.34-.54-.82-.54-1.45,0-.66.17-1.15.53-1.48.35-.33.84-.5,1.47-.5l25.46-.13c.63,0,1.12.15,1.48.46.36.31.54.73.54,1.25,0,.49-.09.9-.28,1.21-.19.32-.52.65-.98,1.01l-22.13,16.92v-.94s21.44-.11,21.44-.11c.66,0,1.16.16,1.52.48.36.33.54.8.54,1.43Z"/>
        <path class="cls-1" d="m32.54,175.57c-.54,3.1-1.57,5.61-3.11,7.53-1.54,1.92-3.49,3.24-5.86,3.96-2.37.71-5.06.81-8.08.29-2.26-.39-4.23-1.06-5.91-2-1.68-.94-3.06-2.12-4.13-3.54-1.07-1.42-1.79-3.06-2.17-4.91-.37-1.85-.37-3.88.01-6.09.28-1.62.76-3.17,1.45-4.66.69-1.49,1.61-2.8,2.78-3.93.33-.33.69-.52,1.05-.57.37-.05.73,0,1.07.16.35.16.63.39.86.69.23.3.33.64.32,1.01,0,.37-.19.75-.53,1.14-.91.92-1.63,1.94-2.17,3.04-.54,1.1-.93,2.35-1.17,3.75-.36,2.1-.24,3.95.37,5.54.61,1.59,1.67,2.89,3.17,3.9,1.5,1.01,3.41,1.71,5.73,2.11,3.58.62,6.45.24,8.6-1.13,2.15-1.38,3.52-3.73,4.09-7.07.21-1.21.3-2.42.27-3.63-.03-1.21-.16-2.39-.41-3.54l1.95,1.21-9.41-1.63-.9,5.21c-.09.54-.31.94-.64,1.2-.34.26-.76.35-1.27.26-.51-.09-.87-.31-1.07-.66-.2-.35-.26-.8-.16-1.34l1.21-6.99c.1-.57.32-.97.67-1.22.35-.24.8-.32,1.37-.22l10.18,1.76c.48.08.88.24,1.19.48.31.23.51.57.6,1,.26,1.24.39,2.66.41,4.27.01,1.61-.11,3.16-.37,4.64Z"/>
        <path class="cls-1" d="m36.81,155.96c-.24.7-.61,1.17-1.11,1.42-.5.25-1.1.25-1.8.01l-23-7.88c-.7-.24-1.17-.61-1.42-1.11-.25-.5-.25-1.1-.01-1.8l4.85-14.16c.19-.54.46-.91.83-1.1.37-.19.81-.2,1.33-.02.54.19.91.47,1.09.85.19.38.19.84,0,1.39l-4.26,12.45,8.57,2.93,3.97-11.6c.19-.57.48-.94.86-1.11.38-.17.82-.17,1.34,0,.54.19.9.46,1.08.83.18.36.17.83-.02,1.4l-3.97,11.6,9,3.08,4.26-12.45c.19-.54.47-.91.85-1.1.38-.19.83-.19,1.35-.01.54.19.9.47,1.08.84.17.38.17.84-.02,1.38l-4.85,14.16Z"/>
        <path class="cls-1" d="m46.04,132.37c-.32.61-.73.98-1.24,1.13-.51.15-1.07.07-1.67-.25l-22.01-11.53c-.63-.33-1.02-.75-1.17-1.26-.15-.51-.07-1.07.25-1.67l4.55-8.68c1.45-2.76,3.22-4.55,5.31-5.36,2.09-.82,4.34-.6,6.74.66,1.55.81,2.7,1.85,3.46,3.11.76,1.26,1.09,2.69.99,4.29-.1,1.6-.62,3.31-1.57,5.12l-.34-.59.49-.94c.51-.97,1.19-1.68,2.05-2.14.86-.46,1.97-.7,3.34-.73l7.45-.08c.56-.01,1.04.09,1.43.31.39.22.64.54.73.94.1.41.01.86-.26,1.37-.28.53-.62.9-1.02,1.11-.4.21-.9.32-1.5.35l-9.04.12c-1.21.01-2.15.26-2.82.74-.67.48-1.28,1.26-1.84,2.32l-2.15,4.1,8.9,4.66c.61.32.99.72,1.17,1.21.17.49.1,1.05-.23,1.68Zm-12.66-9.04l3.25-6.21c.96-1.84,1.31-3.43,1.03-4.78-.28-1.35-1.18-2.42-2.71-3.22-1.5-.79-2.89-.91-4.16-.37-1.27.54-2.39,1.73-3.35,3.57l-3.25,6.21,9.19,4.81Z"/>
        <path class="cls-1" d="m67.83,96.54c-.49.56-1.01.85-1.57.89-.56.04-1.12-.19-1.67-.67l-18.3-16c-.56-.49-.85-1.01-.89-1.57-.04-.56.19-1.12.67-1.67l6.42-7.35c1.31-1.5,2.66-2.58,4.04-3.25,1.38-.66,2.74-.91,4.08-.74,1.34.17,2.6.78,3.8,1.82,1.32,1.15,2.09,2.51,2.31,4.09.22,1.57-.1,3.16-.96,4.77l-.46-.4c1.54-1.34,3.15-2.04,4.84-2.08,1.69-.05,3.29.59,4.79,1.9,1.93,1.69,2.86,3.63,2.79,5.81-.08,2.18-1.12,4.43-3.14,6.73l-6.75,7.72Zm-11.07-12.07l4.8-5.49c1.29-1.48,1.98-2.86,2.05-4.15.07-1.28-.47-2.43-1.63-3.44-1.15-1.01-2.36-1.39-3.62-1.15-1.26.24-2.54,1.1-3.84,2.58l-4.8,5.49,7.04,6.15Zm9.78,8.55l5.23-5.99c1.35-1.54,2.04-2.95,2.08-4.22.04-1.27-.56-2.45-1.79-3.53-1.23-1.08-2.47-1.51-3.72-1.29-1.24.22-2.54,1.1-3.89,2.64l-5.23,5.99,7.31,6.39Z"/>
        <path class="cls-1" d="m88.3,75.47c-.51.46-1.03.67-1.56.63-.53-.04-1.02-.31-1.48-.82l-16.82-18.67c-.48-.53-.7-1.05-.67-1.57.03-.52.29-1.01.8-1.47.51-.46,1.02-.67,1.54-.64.52.03,1.02.31,1.49.83l16.82,18.67c.46.51.68,1.02.67,1.54,0,.52-.28,1.02-.8,1.5Z"/>
        <path class="cls-1" d="m103.49,63.35c-2.73,1.96-5.56,2.42-8.48,1.37-2.92-1.05-5.78-3.51-8.57-7.4-1.9-2.64-3.16-5.08-3.8-7.32-.63-2.24-.65-4.26-.06-6.06.59-1.8,1.79-3.36,3.61-4.67,2.75-1.98,5.57-2.46,8.45-1.45,2.88,1.01,5.73,3.48,8.55,7.41,1.87,2.6,3.12,5.03,3.77,7.29.65,2.26.69,4.3.11,6.13-.57,1.83-1.77,3.39-3.59,4.7Zm-2.06-2.86c1.71-1.23,2.43-2.88,2.16-4.96-.27-2.08-1.53-4.7-3.8-7.85-2.28-3.17-4.35-5.2-6.2-6.07-1.85-.87-3.64-.69-5.35.53-1.69,1.21-2.42,2.84-2.19,4.88.22,2.04,1.48,4.65,3.76,7.83,2.26,3.15,4.35,5.18,6.24,6.09,1.9.91,3.69.76,5.38-.46Z"/>
        <path class="cls-1" d="m121.65,56.21c-.07.48-.24.83-.51,1.05-.27.22-.56.3-.87.26-.31-.04-.56-.21-.75-.49-.19-.28-.25-.68-.17-1.2.13-.77.11-1.47-.05-2.12-.16-.65-.37-1.18-.61-1.61l.67.85c-.71.41-1.41.53-2.08.36-.68-.17-1.21-.59-1.6-1.28-.38-.66-.48-1.32-.32-1.97.17-.64.59-1.16,1.28-1.56.71-.41,1.42-.48,2.11-.23.69.25,1.3.83,1.81,1.73.3.52.56,1.1.77,1.73.22.63.36,1.32.44,2.06.08.74.03,1.55-.13,2.43Z"/>
        <path class="cls-1" d="m141.22,42.07c-.6.19-1.11.17-1.55-.06-.43-.23-.75-.65-.94-1.25l-7.84-24.22c-.2-.62-.19-1.15.05-1.59.23-.43.63-.74,1.21-.93.55-.18,1-.22,1.36-.12.36.1.75.35,1.17.76l16.39,15.77-1.21.39,4.01-22.37c.1-.58.26-1.01.48-1.3.22-.29.61-.52,1.15-.7.57-.19,1.07-.17,1.48.06.42.22.73.65.93,1.27l7.84,24.22c.19.6.2,1.12,0,1.55-.19.43-.58.75-1.18.94-.6.19-1.11.17-1.53-.07-.42-.24-.73-.65-.92-1.25l-6.51-20.13.86-.28-3.63,19.66c-.08.46-.21.82-.39,1.07-.18.26-.47.45-.89.59-.42.13-.79.15-1.11.04-.32-.11-.65-.31-.97-.61l-14.55-13.82.94-.3,6.53,20.16c.19.6.2,1.11,0,1.55-.19.43-.58.75-1.18.94Z"/>
        <path class="cls-1" d="m174.02,32.46c-.54.07-.99,0-1.35-.21-.36-.2-.59-.51-.69-.91-.1-.4-.08-.87.07-1.41l8-26.09c.19-.68.48-1.19.87-1.51.39-.32.84-.52,1.35-.58.49-.06.96.02,1.41.24.45.22.86.64,1.21,1.26l14.05,23.39c.31.49.46.94.46,1.37,0,.43-.14.77-.41,1.04-.27.27-.68.43-1.22.5-.6.07-1.09-.02-1.48-.27-.39-.25-.76-.68-1.11-1.27l-3.65-6.24,2.05.91-17.33,2.12,1.73-1.37-2,6.94c-.19.68-.43,1.19-.72,1.51-.29.32-.71.52-1.25.59Zm8.79-25.73l-4.36,15.32-1.14-.85,14.36-1.76-.82,1.09-7.97-13.81h-.08Z"/>
        <path class="cls-1" d="m207.39,29.44c-.63-.04-1.11-.24-1.44-.61-.34-.37-.48-.89-.45-1.54l1.42-25.25c.04-.68.24-1.2.6-1.55.36-.35.83-.51,1.4-.48.49.03.86.14,1.11.33.25.19.54.53.87,1.01l15.61,23.17-1.02-.06,1.2-21.45c.04-.63.23-1.11.59-1.44.36-.34.85-.49,1.48-.45.65.04,1.14.24,1.44.61.31.37.44.87.41,1.5l-1.43,25.42c-.04.63-.22,1.11-.55,1.45-.33.34-.76.49-1.28.46-.49-.03-.89-.15-1.19-.35-.3-.21-.62-.55-.95-1.04l-15.54-23.13.94.05-1.2,21.41c-.04.65-.23,1.15-.58,1.49-.35.34-.84.49-1.46.45Z"/>
        <path class="cls-1" d="m250.09,35.02c-3.06-.72-5.5-1.91-7.33-3.57-1.83-1.65-3.03-3.69-3.59-6.09-.57-2.41-.5-5.1.21-8.08.53-2.23,1.31-4.16,2.36-5.78,1.04-1.62,2.31-2.92,3.79-3.91,1.48-.98,3.16-1.6,5.03-1.86,1.87-.26,3.9-.13,6.08.38,1.6.38,3.12.95,4.56,1.73,1.44.78,2.7,1.78,3.75,3.01.31.35.48.72.5,1.09.02.37-.05.73-.23,1.06-.18.34-.42.61-.74.81-.32.21-.66.29-1.03.26-.37-.03-.74-.23-1.1-.6-.87-.96-1.83-1.75-2.9-2.35-1.07-.6-2.29-1.07-3.67-1.39-2.07-.49-3.92-.48-5.55.04-1.62.52-2.99,1.49-4.08,2.93-1.1,1.44-1.92,3.3-2.46,5.59-.84,3.54-.63,6.42.61,8.65,1.24,2.23,3.51,3.74,6.81,4.52,1.2.28,2.4.45,3.61.5,1.21.05,2.4-.02,3.56-.19l-1.33,1.88,2.2-9.3-5.15-1.22c-.53-.13-.92-.36-1.16-.72-.24-.35-.3-.78-.18-1.29.12-.5.36-.85.73-1.03.36-.18.81-.21,1.35-.08l6.9,1.63c.56.13.95.38,1.17.74.22.36.27.82.14,1.38l-2.38,10.05c-.11.48-.3.86-.55,1.16-.25.29-.6.47-1.03.54-1.25.18-2.68.23-4.29.14-1.61-.09-3.14-.3-4.61-.65Z"/>
        <path class="cls-1" d="m269.4,40.47c-.68-.28-1.13-.68-1.35-1.2-.22-.52-.18-1.12.1-1.8l9.26-22.48c.28-.68.68-1.13,1.2-1.35.52-.22,1.12-.18,1.8.1l13.84,5.7c.53.22.88.52,1.05.9.17.38.15.82-.06,1.33-.22.53-.52.88-.92,1.04-.39.16-.85.14-1.38-.08l-12.17-5.01-3.45,8.38,11.33,4.67c.56.23.91.54,1.06.92.15.39.12.83-.09,1.34-.22.53-.52.87-.89,1.03-.37.16-.84.12-1.4-.11l-11.33-4.67-3.62,8.79,12.17,5.01c.53.22.88.52,1.04.92.16.39.14.84-.07,1.35-.22.53-.52.87-.91,1.02-.39.15-.85.12-1.38-.1l-13.84-5.7Z"/>
        <path class="cls-1" d="m292.39,51.12c-.58-.35-.94-.79-1.05-1.31s0-1.07.35-1.65l12.85-21.26c.37-.61.81-.97,1.33-1.09.52-.12,1.07,0,1.65.35l8.39,5.07c2.67,1.61,4.34,3.49,5.03,5.63.69,2.14.33,4.37-1.07,6.68-.9,1.5-2.01,2.59-3.31,3.27-1.31.68-2.75.92-4.34.73-1.59-.2-3.26-.82-5.02-1.88l.61-.3.91.55c.94.56,1.61,1.29,2.01,2.18.41.88.58,2.01.52,3.38l-.37,7.44c-.02.56-.15,1.03-.4,1.41-.25.38-.57.6-.98.68-.41.07-.86-.04-1.35-.34-.51-.31-.86-.67-1.04-1.09-.18-.41-.27-.92-.26-1.52l.43-9.03c.06-1.21-.13-2.16-.57-2.86-.44-.7-1.18-1.36-2.2-1.98l-3.96-2.4-5.19,8.6c-.35.59-.78.95-1.28,1.09-.5.14-1.06.03-1.67-.34Zm9.8-12.09l6,3.63c1.78,1.07,3.35,1.51,4.71,1.32,1.36-.2,2.49-1.03,3.38-2.51.88-1.45,1.08-2.82.62-4.13-.46-1.3-1.58-2.49-3.36-3.56l-6-3.63-5.36,8.88Z"/>
        <path class="cls-1" d="m331.8,80.52c-.9-.88-1.71-1.81-2.44-2.78-.73-.98-1.33-1.98-1.82-3.01-.49-1.03-.83-2.04-1.04-3.05-.08-.5-.05-.94.11-1.32.16-.38.39-.68.7-.89.31-.22.64-.34,1.01-.36.37-.02.7.06,1,.26.3.2.5.56.61,1.08.33,1.43.85,2.75,1.57,3.97.72,1.22,1.66,2.39,2.81,3.52,1.66,1.62,3.18,2.52,4.55,2.7,1.37.18,2.53-.21,3.46-1.17.76-.78,1.09-1.68.97-2.69-.12-1.01-.71-2.31-1.77-3.88l-2.51-3.71c-1.48-2.2-2.23-4.2-2.26-5.99-.03-1.79.7-3.44,2.19-4.97.9-.92,1.91-1.57,3.04-1.96,1.13-.39,2.3-.53,3.53-.42,1.23.11,2.46.49,3.71,1.13,1.24.64,2.43,1.52,3.57,2.62,1.21,1.18,2.2,2.45,2.96,3.81.76,1.35,1.25,2.76,1.46,4.23.08.42.04.81-.13,1.16-.17.35-.4.63-.7.83-.3.21-.62.31-.97.32-.35,0-.67-.11-.98-.35-.3-.24-.52-.63-.64-1.17-.27-1.25-.69-2.38-1.26-3.38-.57-1-1.34-1.96-2.3-2.9-.96-.94-1.94-1.6-2.94-2.01-1-.4-1.95-.53-2.85-.37-.9.16-1.7.6-2.4,1.32-.8.82-1.18,1.73-1.13,2.74.05,1,.57,2.24,1.55,3.69l2.48,3.68c1.55,2.32,2.39,4.38,2.51,6.17.12,1.8-.52,3.41-1.91,4.84-.9.92-1.89,1.56-2.98,1.93-1.09.37-2.23.49-3.43.35-1.2-.14-2.42-.54-3.67-1.2-1.24-.66-2.47-1.58-3.69-2.77Z"/>
        <path class="cls-1" d="m343.63,92.56c-.32-.44-.48-.87-.48-1.28,0-.41.16-.76.45-1.04.3-.29.72-.5,1.27-.63l26.66-5.8c.69-.17,1.27-.16,1.74.02.47.18.86.48,1.17.9.29.4.45.85.48,1.35.03.5-.14,1.06-.5,1.67l-13.51,23.71c-.27.51-.6.86-.97,1.07-.37.21-.74.26-1.11.15-.36-.11-.71-.38-1.03-.82-.36-.48-.52-.96-.49-1.42.03-.46.22-.99.57-1.58l3.65-6.24.22,2.23-10.34-14.07,2.04.84-7.03,1.65c-.69.17-1.25.2-1.67.11-.43-.09-.8-.36-1.12-.8Zm26.74-4.94l-15.49,3.7.19-1.41,8.57,11.66-1.35-.18,8.14-13.71-.05-.07Z"/>
        <path class="cls-1" d="m362.63,120.74c-.33-.6-.42-1.15-.27-1.66s.53-.93,1.13-1.26l21.94-12.26c.62-.35,1.18-.45,1.68-.31.5.14.92.51,1.25,1.11.33.6.43,1.15.29,1.65-.14.5-.52.93-1.14,1.27l-21.94,12.26c-.6.33-1.15.44-1.66.31-.51-.12-.93-.5-1.28-1.12Z"/>
        <path class="cls-1" d="m368.56,131.68c-.24-.58-.26-1.11-.06-1.57.19-.46.6-.82,1.2-1.06l23.43-9.52c.63-.26,1.18-.3,1.65-.12.47.18.81.53,1.03,1.06.19.46.24.84.18,1.14-.07.31-.25.71-.54,1.22l-14.26,24.03-.39-.95,19.9-8.09c.58-.24,1.1-.26,1.56-.08.46.18.8.56,1.04,1.15.25.61.27,1.13.06,1.57-.21.44-.6.77-1.18,1.01l-23.58,9.59c-.58.24-1.1.28-1.54.12-.45-.16-.77-.48-.96-.96-.19-.46-.25-.87-.19-1.23.06-.36.24-.8.53-1.3l14.25-23.94.36.87-19.86,8.07c-.61.25-1.14.29-1.59.12-.45-.17-.8-.55-1.03-1.13Z"/>
      </g>
    </g>
  </g>
</svg>